<mxfile host="app.diagrams.net" modified="2023-03-11T01:16:29.490Z" agent="5.0 (Windows NT 10.0; Win64; x64) AppleWebKit/537.36 (KHTML, like Gecko) Chrome/110.0.0.0 Safari/537.36" etag="jHLN9j3U_plgFFu_l992" version="21.0.6" type="github">
  <diagram name="PÃ¡gina-1" id="SyAQez-dysnxJ3i33iEP">
    <mxGraphModel dx="1877" dy="1742" grid="1" gridSize="10" guides="1" tooltips="1" connect="1" arrows="1" fold="1" page="1" pageScale="1" pageWidth="827" pageHeight="1169" math="0" shadow="0">
      <root>
        <mxCell id="0" />
        <mxCell id="1" parent="0" />
        <mxCell id="jH8XSclE2KkbLYua1s-x-25" value="" style="edgeStyle=orthogonalEdgeStyle;rounded=0;orthogonalLoop=1;jettySize=auto;html=1;" edge="1" parent="1" source="jH8XSclE2KkbLYua1s-x-15" target="jH8XSclE2KkbLYua1s-x-23">
          <mxGeometry relative="1" as="geometry">
            <Array as="points">
              <mxPoint x="-510" y="60" />
              <mxPoint x="-510" y="60" />
            </Array>
          </mxGeometry>
        </mxCell>
        <mxCell id="jH8XSclE2KkbLYua1s-x-15" value="" style="verticalLabelPosition=bottom;verticalAlign=top;html=1;shape=mxgraph.basic.rect;fillColor2=none;strokeWidth=1;size=20;indent=5;" vertex="1" parent="1">
          <mxGeometry x="-700" y="40" width="120" height="40" as="geometry" />
        </mxCell>
        <mxCell id="jH8XSclE2KkbLYua1s-x-17" value="ENGENHEIRO&lt;br&gt;" style="text;html=1;align=center;verticalAlign=middle;resizable=0;points=[];autosize=1;strokeColor=none;fillColor=none;" vertex="1" parent="1">
          <mxGeometry x="-690" y="45" width="100" height="30" as="geometry" />
        </mxCell>
        <mxCell id="jH8XSclE2KkbLYua1s-x-42" style="edgeStyle=orthogonalEdgeStyle;rounded=0;orthogonalLoop=1;jettySize=auto;html=1;" edge="1" parent="1" source="jH8XSclE2KkbLYua1s-x-22">
          <mxGeometry relative="1" as="geometry">
            <mxPoint x="-230" y="70" as="targetPoint" />
          </mxGeometry>
        </mxCell>
        <mxCell id="jH8XSclE2KkbLYua1s-x-22" value="" style="html=1;whiteSpace=wrap;aspect=fixed;shape=isoRectangle;" vertex="1" parent="1">
          <mxGeometry x="-490" y="23" width="140" height="84" as="geometry" />
        </mxCell>
        <mxCell id="jH8XSclE2KkbLYua1s-x-23" value="GERENCIA&lt;br&gt;" style="text;html=1;align=center;verticalAlign=middle;resizable=0;points=[];autosize=1;strokeColor=none;fillColor=none;" vertex="1" parent="1">
          <mxGeometry x="-465" y="50" width="90" height="30" as="geometry" />
        </mxCell>
        <mxCell id="jH8XSclE2KkbLYua1s-x-27" value="(1,,1)" style="text;html=1;align=center;verticalAlign=middle;resizable=0;points=[];autosize=1;strokeColor=none;fillColor=none;" vertex="1" parent="1">
          <mxGeometry x="-555" y="23" width="50" height="30" as="geometry" />
        </mxCell>
        <mxCell id="jH8XSclE2KkbLYua1s-x-28" value="(1,N)" style="text;html=1;align=center;verticalAlign=middle;resizable=0;points=[];autosize=1;strokeColor=none;fillColor=none;" vertex="1" parent="1">
          <mxGeometry x="-330" y="20" width="50" height="30" as="geometry" />
        </mxCell>
        <mxCell id="jH8XSclE2KkbLYua1s-x-72" style="edgeStyle=orthogonalEdgeStyle;rounded=0;orthogonalLoop=1;jettySize=auto;html=1;entryX=0.222;entryY=0.91;entryDx=0;entryDy=0;entryPerimeter=0;fontFamily=Helvetica;fontSize=12;fontColor=default;" edge="1" parent="1" source="jH8XSclE2KkbLYua1s-x-31" target="jH8XSclE2KkbLYua1s-x-69">
          <mxGeometry relative="1" as="geometry" />
        </mxCell>
        <mxCell id="jH8XSclE2KkbLYua1s-x-31" value="FUNCIONARIO" style="whiteSpace=wrap;html=1;align=center;" vertex="1" parent="1">
          <mxGeometry x="-240" y="290" width="100" height="50" as="geometry" />
        </mxCell>
        <mxCell id="jH8XSclE2KkbLYua1s-x-48" value="" style="edgeStyle=orthogonalEdgeStyle;rounded=0;orthogonalLoop=1;jettySize=auto;html=1;" edge="1" parent="1" source="jH8XSclE2KkbLYua1s-x-32" target="jH8XSclE2KkbLYua1s-x-40">
          <mxGeometry relative="1" as="geometry" />
        </mxCell>
        <mxCell id="jH8XSclE2KkbLYua1s-x-49" value="" style="edgeStyle=orthogonalEdgeStyle;rounded=0;orthogonalLoop=1;jettySize=auto;html=1;" edge="1" parent="1" source="jH8XSclE2KkbLYua1s-x-32" target="jH8XSclE2KkbLYua1s-x-31">
          <mxGeometry relative="1" as="geometry" />
        </mxCell>
        <mxCell id="jH8XSclE2KkbLYua1s-x-32" value="TRABALHA" style="shape=rhombus;perimeter=rhombusPerimeter;whiteSpace=wrap;html=1;align=center;" vertex="1" parent="1">
          <mxGeometry x="-250" y="150" width="120" height="60" as="geometry" />
        </mxCell>
        <mxCell id="jH8XSclE2KkbLYua1s-x-53" value="" style="edgeStyle=orthogonalEdgeStyle;rounded=0;orthogonalLoop=1;jettySize=auto;html=1;" edge="1" parent="1" source="jH8XSclE2KkbLYua1s-x-40" target="jH8XSclE2KkbLYua1s-x-52">
          <mxGeometry relative="1" as="geometry" />
        </mxCell>
        <mxCell id="jH8XSclE2KkbLYua1s-x-55" value="" style="edgeStyle=orthogonalEdgeStyle;rounded=0;orthogonalLoop=1;jettySize=auto;html=1;" edge="1" parent="1" source="jH8XSclE2KkbLYua1s-x-40" target="jH8XSclE2KkbLYua1s-x-54">
          <mxGeometry relative="1" as="geometry" />
        </mxCell>
        <mxCell id="jH8XSclE2KkbLYua1s-x-40" value="PROJETO" style="whiteSpace=wrap;html=1;align=center;" vertex="1" parent="1">
          <mxGeometry x="-240" y="45" width="100" height="40" as="geometry" />
        </mxCell>
        <mxCell id="jH8XSclE2KkbLYua1s-x-50" value="(1,N)" style="text;html=1;align=center;verticalAlign=middle;resizable=0;points=[];autosize=1;strokeColor=none;fillColor=none;" vertex="1" parent="1">
          <mxGeometry x="-170" y="107" width="50" height="30" as="geometry" />
        </mxCell>
        <mxCell id="jH8XSclE2KkbLYua1s-x-51" value="(1,N)" style="text;html=1;align=center;verticalAlign=middle;resizable=0;points=[];autosize=1;strokeColor=none;fillColor=none;" vertex="1" parent="1">
          <mxGeometry x="-170" y="230" width="50" height="30" as="geometry" />
        </mxCell>
        <mxCell id="jH8XSclE2KkbLYua1s-x-52" value="N.SEQUENCIAL" style="ellipse;whiteSpace=wrap;html=1;align=center;fontStyle=4;" vertex="1" parent="1">
          <mxGeometry x="-260" y="-20" width="100" height="40" as="geometry" />
        </mxCell>
        <mxCell id="jH8XSclE2KkbLYua1s-x-54" value="NOME" style="ellipse;whiteSpace=wrap;html=1;align=center;" vertex="1" parent="1">
          <mxGeometry x="-110" width="100" height="40" as="geometry" />
        </mxCell>
        <mxCell id="jH8XSclE2KkbLYua1s-x-61" style="edgeStyle=orthogonalEdgeStyle;rounded=0;orthogonalLoop=1;jettySize=auto;html=1;entryX=0.546;entryY=-0.033;entryDx=0;entryDy=0;entryPerimeter=0;" edge="1" parent="1" source="jH8XSclE2KkbLYua1s-x-56" target="jH8XSclE2KkbLYua1s-x-17">
          <mxGeometry relative="1" as="geometry" />
        </mxCell>
        <mxCell id="jH8XSclE2KkbLYua1s-x-56" value="CREA" style="ellipse;whiteSpace=wrap;html=1;align=center;fontStyle=4;" vertex="1" parent="1">
          <mxGeometry x="-750" y="-30" width="100" height="40" as="geometry" />
        </mxCell>
        <mxCell id="jH8XSclE2KkbLYua1s-x-60" style="edgeStyle=orthogonalEdgeStyle;rounded=0;orthogonalLoop=1;jettySize=auto;html=1;entryX=0.618;entryY=1.08;entryDx=0;entryDy=0;entryPerimeter=0;" edge="1" parent="1" source="jH8XSclE2KkbLYua1s-x-58" target="jH8XSclE2KkbLYua1s-x-15">
          <mxGeometry relative="1" as="geometry" />
        </mxCell>
        <mxCell id="jH8XSclE2KkbLYua1s-x-58" value="ESTADO&lt;br&gt;" style="ellipse;whiteSpace=wrap;html=1;align=center;fontStyle=4;" vertex="1" parent="1">
          <mxGeometry x="-780" y="120" width="100" height="40" as="geometry" />
        </mxCell>
        <mxCell id="jH8XSclE2KkbLYua1s-x-64" value="Gerencia" style="shape=rhombus;double=1;perimeter=rhombusPerimeter;whiteSpace=wrap;html=1;align=center;strokeColor=default;fontFamily=Helvetica;fontSize=12;fontColor=default;fillColor=default;" vertex="1" parent="1">
          <mxGeometry x="-480" y="30" width="120" height="70" as="geometry" />
        </mxCell>
        <mxCell id="jH8XSclE2KkbLYua1s-x-65" value="Projeto" style="shape=ext;margin=3;double=1;whiteSpace=wrap;html=1;align=center;strokeColor=default;fontFamily=Helvetica;fontSize=12;fontColor=default;fillColor=default;" vertex="1" parent="1">
          <mxGeometry x="-240" y="45" width="100" height="40" as="geometry" />
        </mxCell>
        <mxCell id="jH8XSclE2KkbLYua1s-x-68" style="edgeStyle=orthogonalEdgeStyle;rounded=0;orthogonalLoop=1;jettySize=auto;html=1;entryX=0;entryY=0.5;entryDx=0;entryDy=0;fontFamily=Helvetica;fontSize=12;fontColor=default;" edge="1" parent="1" source="jH8XSclE2KkbLYua1s-x-67" target="jH8XSclE2KkbLYua1s-x-31">
          <mxGeometry relative="1" as="geometry" />
        </mxCell>
        <mxCell id="jH8XSclE2KkbLYua1s-x-67" value="codigo.func&lt;br&gt;" style="ellipse;whiteSpace=wrap;html=1;align=center;fontStyle=4;strokeColor=default;fontFamily=Helvetica;fontSize=12;fontColor=default;fillColor=default;" vertex="1" parent="1">
          <mxGeometry x="-320" y="370" width="100" height="40" as="geometry" />
        </mxCell>
        <mxCell id="jH8XSclE2KkbLYua1s-x-69" value="nome" style="ellipse;whiteSpace=wrap;html=1;align=center;strokeColor=default;fontFamily=Helvetica;fontSize=12;fontColor=default;fillColor=default;" vertex="1" parent="1">
          <mxGeometry x="-100" y="290" width="100" height="40" as="geometry" />
        </mxCell>
        <mxCell id="jH8XSclE2KkbLYua1s-x-71" style="edgeStyle=orthogonalEdgeStyle;rounded=0;orthogonalLoop=1;jettySize=auto;html=1;fontFamily=Helvetica;fontSize=12;fontColor=default;" edge="1" parent="1" source="jH8XSclE2KkbLYua1s-x-70" target="jH8XSclE2KkbLYua1s-x-31">
          <mxGeometry relative="1" as="geometry" />
        </mxCell>
        <mxCell id="jH8XSclE2KkbLYua1s-x-70" value="cpf&lt;br&gt;" style="ellipse;whiteSpace=wrap;html=1;align=center;strokeColor=default;fontFamily=Helvetica;fontSize=12;fontColor=default;fillColor=default;" vertex="1" parent="1">
          <mxGeometry x="-160" y="390" width="100" height="40" as="geometry" />
        </mxCell>
      </root>
    </mxGraphModel>
  </diagram>
</mxfile>
